<svg width="18" height="18" viewBox="0 0 18 18" fill="none" xmlns="http://www.w3.org/2000/svg">
<path d="M14.6667 0.666992C14.8877 0.666992 15.0996 0.75479 15.2559 0.91107C15.4122 1.06735 15.5 1.27931 15.5 1.50033V4.63116L13.8333 6.29783V2.33366H2.16667V15.667H13.8333V13.3687L15.5 11.702V16.5003C15.5 16.7213 15.4122 16.9333 15.2559 17.0896C15.0996 17.2459 14.8877 17.3337 14.6667 17.3337H1.33333C1.11232 17.3337 0.900358 17.2459 0.744078 17.0896C0.587797 16.9333 0.5 16.7213 0.5 16.5003V1.50033C0.5 1.27931 0.587797 1.06735 0.744078 0.91107C0.900358 0.75479 1.11232 0.666992 1.33333 0.666992H14.6667ZM16.1483 6.34033L17.3267 7.51866L10.845 14.0003L9.665 13.9987L9.66667 12.822L16.1483 6.34033ZM8.83333 9.00033V10.667H4.66667V9.00033H8.83333ZM11.3333 5.66699V7.33366H4.66667V5.66699H11.3333Z" fill="#6B778C"/>
</svg>
