<svg width="16" height="16" viewBox="0 0 16 16" fill="none" xmlns="http://www.w3.org/2000/svg">
<path d="M14.1668 10.166V1.83268H2.50016V10.166H5.8335C5.8335 11.5493 6.95016 12.666 8.3335 12.666C9.71683 12.666 10.8335 11.5493 10.8335 10.166H14.1668ZM14.1668 0.166016C15.0835 0.166016 15.8335 0.916016 15.8335 1.83268V13.4993C15.8335 14.416 15.0835 15.166 14.1668 15.166H2.50016C2.05814 15.166 1.63421 14.9904 1.32165 14.6779C1.00909 14.3653 0.833496 13.9414 0.833496 13.4993V1.83268C0.833496 1.39065 1.00909 0.966732 1.32165 0.654171C1.63421 0.34161 2.05814 0.166016 2.50016 0.166016H14.1668ZM4.16683 8.49935V6.83268H12.5002V8.49935H4.16683ZM4.16683 5.16602V3.49935H12.5002V5.16602H4.16683Z" fill="black"/>
</svg>
