<svg width="18" height="17" viewBox="0 0 18 17" fill="none" xmlns="http://www.w3.org/2000/svg">
<path d="M15.0002 0.332031C15.2212 0.332031 15.4331 0.419829 15.5894 0.576109C15.7457 0.732389 15.8335 0.944351 15.8335 1.16536V4.2962L14.1668 5.96286V1.9987H2.50016V15.332H14.1668V13.0337L15.8335 11.367V16.1654C15.8335 16.3864 15.7457 16.5983 15.5894 16.7546C15.4331 16.9109 15.2212 16.9987 15.0002 16.9987H1.66683C1.44582 16.9987 1.23385 16.9109 1.07757 16.7546C0.921293 16.5983 0.833496 16.3864 0.833496 16.1654V1.16536C0.833496 0.944351 0.921293 0.732389 1.07757 0.576109C1.23385 0.419829 1.44582 0.332031 1.66683 0.332031H15.0002ZM16.4818 6.00536L17.6602 7.1837L11.1785 13.6654L9.9985 13.6637L10.0002 12.487L16.4818 6.00536V6.00536ZM9.16683 8.66536V10.332H5.00016V8.66536H9.16683ZM11.6668 5.33203V6.9987H5.00016V5.33203H11.6668Z" fill="black"/>
</svg>
