<svg width="16" height="16" viewBox="0 0 16 16" fill="none" xmlns="http://www.w3.org/2000/svg">
<path d="M13.8333 10.5V2.16667H2.16667V10.5H5.5C5.5 11.8833 6.61667 13 8 13C9.38333 13 10.5 11.8833 10.5 10.5H13.8333ZM13.8333 0.5C14.75 0.5 15.5 1.25 15.5 2.16667V13.8333C15.5 14.75 14.75 15.5 13.8333 15.5H2.16667C1.72464 15.5 1.30072 15.3244 0.988155 15.0118C0.675595 14.6993 0.5 14.2754 0.5 13.8333V2.16667C0.5 1.72464 0.675595 1.30072 0.988155 0.988155C1.30072 0.675595 1.72464 0.5 2.16667 0.5H13.8333ZM3.83333 8.83333V7.16667H12.1667V8.83333H3.83333ZM3.83333 5.5V3.83333H12.1667V5.5H3.83333Z" fill="#6B778C"/>
</svg>
